<svg id="Capa_1" data-name="Capa 1" xmlns="http://www.w3.org/2000/svg" viewBox="0 0 750 664"><defs><style>.cls-1{fill:#e21727;}.cls-2{fill:#fff;}</style></defs><title>logo mal</title><path id="path171" class="cls-1" d="M625.86,347.3c.21,5.66.85,11.32.55,17a287.68,287.68,0,0,1-2.77,29.47A265,265,0,0,1,612,439.88a246.43,246.43,0,0,1-44.39,77.35,230.87,230.87,0,0,1-26.87,26.84,221.33,221.33,0,0,1-46.48,30.52,209.91,209.91,0,0,1-53.83,17.93,105.15,105.15,0,0,1-17.75,2.28,45.88,45.88,0,0,0-5.07.63,47.08,47.08,0,0,1-7,.64c-12.34-.55-24.71-.42-36.91-2.46a208.42,208.42,0,0,1-30.12-7.09,198.73,198.73,0,0,1-85.89-55,206.23,206.23,0,0,1-26.55-35.74q-3.28-5.58-6.21-11.32c-4.54-8.82-9.67-17.37-14.95-25.88a54.41,54.41,0,0,0-8.17-9.71,26.58,26.58,0,0,0-12-6.83,97,97,0,0,1-14-5.25c-3.95-1.75-8.08-3.22-12.16-4.76a203,203,0,0,1-25.14-11.68,48.34,48.34,0,0,1-11.06-8.12c-4.74-4.72-3.56-10.07,2.82-13.36s13.79-5.05,20.93-7.06c12-3.38,22.8-8.46,31.54-16.54a48.6,48.6,0,0,0,12.61-19.65,76.36,76.36,0,0,0,3.44-15.64A245,245,0,0,1,217.21,276,247.67,247.67,0,0,1,247,225.39a233.86,233.86,0,0,1,76.3-64.9A209.26,209.26,0,0,1,422.11,136a185.31,185.31,0,0,1,33,3.08c53.21,9.39,100.73,40.65,132.13,86.93a220.49,220.49,0,0,1,20,36.44A228.56,228.56,0,0,1,621,306.08a213,213,0,0,1,4.89,41.22Z" transform="translate(-19 -136)"/><path id="path173" class="cls-2" d="M500.77,430.82c-29.43,45.82-68,56-88.32,56-64.68,0-101.36-50.39-101.36-111,0-35.65,15.94-70.78,36.22-91.65,21.71-22.91,48.74-35.64,75.29-35.64,47.3,0,80.12,41.24,79.63,83,0,8.63-.47,17.31-6.27,18.84-9.17,2.54-77.22,6.1-124,8.15,1.94,54,30.37,81.46,65.16,81.46,18.83,0,37.64-7.14,55-22.92ZM412.93,269.4c-19.3,0-35.71,23.93-38.55,64.15,19.79-.51,38.13-1,58.41-1.53,6.76-.5,9.66-1.53,9.66-10.18.37-25.43-10.69-52.42-29.52-52.42Z" transform="translate(-19 -136)"/><path id="path175" d="M36.17,719.49c1.1,9.35,8.31,16.1,20,16.1,6.13,0,14.17-2.61,18-7.06l10.63,11.82c-7.09,8.28-18.62,12.26-28.89,12.26C32.75,752.61,19,736.5,19,712.28c0-23,13.9-39.57,35.7-39.57,22.49,0,36.52,15.65,34,46.83ZM72.69,704c-1.09-9.86-7.9-14.79-17.44-14.79-9,0-16.35,4.93-18.82,14.79Z" transform="translate(-19 -136)"/><path id="path177" d="M154.74,675h15.94v75.59H155l-.82-11.09c-3.81,8.9-14.31,13.2-21.8,13.35-19.9.16-34.62-13.65-34.62-40.18,0-26.07,15.4-39.72,35.05-39.56,9,0,17.58,4.75,21.39,12.26Zm-40.37,37.72c0,14.41,8.86,23,19.9,23,26.17,0,26.17-45.85,0-45.85-11,0-19.9,8.44-19.9,22.85Z" transform="translate(-19 -136)"/><path id="path179" d="M228.6,695.1c-4.76-5.05-10.21-6.74-16.62-6.74-7.91,0-12.26,2.76-12.26,7.52s3.95,7.66,12.53,8.27c12.68.92,28.76,4.15,28.76,24.23,0,13.35-9.68,24.85-28.9,24.85-10.62,0-21.25-2-31.07-13.5l8.18-13.34c4.77,6,15.68,10.42,23.17,10.58,6.27.15,12.13-3.52,12.13-9.05,0-5.22-3.81-7.4-13.36-8-12.67-1.07-27.79-6.28-27.79-23.41,0-17.47,16.07-23.61,28.34-23.61,10.49,0,18.4,2.29,26.17,10Z" transform="translate(-19 -136)"/><path id="path181" d="M319.38,675l-41,107.2H260.09l12.54-32.81L245.79,675h19.35l10.22,32.66,6.4,21.32,7-20.86L301,675Z" transform="translate(-19 -136)"/><path id="path183" d="M353.86,712.74c0-22.69,15.27-39.1,34.22-39.1s35.84,13,33.24,42.63H360.68c1.36,17.78,13.49,28.06,27.37,28.06,8.85,0,19.21-4,24.26-11.5l4.76,4.29c-6.57,9.66-18.25,14.57-29,14.57C369.13,751.64,353.86,736.85,353.86,712.74Zm61.47-3c-.14-18.72-11-29.14-27.25-29.14-13.91,0-25.9,10.58-27.38,29.14Z" transform="translate(-19 -136)"/><path id="path185" d="M445.17,674.87v13.49c5.18-10.43,14.59-14.72,24-14.87,18,0,30.39,12.42,30.39,33.43v43.69h-6.68V707.07c0-17.18-9.41-26.38-24-26.22-13.9.14-23.57,12-23.57,27.6v42.16h-6.68V674.87Z" transform="translate(-19 -136)"/><path id="path187" d="M571.11,671.8l4.38,4.29-6.57,8.62c4.77,5.83,8.31,13.56,8.31,25.77,0,13.18-7,26.53-18.12,32.2,11.85,4.75,18.4,14.11,18.4,27.11,0,20.39-14.18,30.21-32,30.21s-31.89-11.09-31.89-30.21h6.68c0,15.49,11.71,22.84,25.18,22.84s25.49-6.74,25.49-22.84-13-22.7-25.49-22.7c-19.49,0-31.61-16.4-31.61-36.65,0-23.62,14.17-37,31.61-37a31.59,31.59,0,0,1,19.08,6.9Zm-50.56,38.64c0,15.64,9.54,29.13,24.94,29.13,13.89,0,25.18-13.55,25.18-29.13,0-19.17-11.31-29.45-25.18-29.45s-24.94,9.66-24.94,29.45Z" transform="translate(-19 -136)"/><path id="path189" d="M597.69,643.28V750.61H591V643.28Z" transform="translate(-19 -136)"/><path id="path191" d="M625.22,650.18c0,8-10.77,8-10.77,0S625.22,642.2,625.22,650.18Zm-8.86,24.38v76.05H623V674.56Z" transform="translate(-19 -136)"/><path id="path193" d="M688.32,688.67c-6.81-6.75-13.49-8-21-8-10.49-.15-20.58,4.3-20.3,14,.27,10.11,12,12.11,20.44,13.8,12,2.3,28.47,4.59,27.8,22.18-.41,16.71-15.81,21.15-27.67,21.15S644,746.72,638.17,736.6l4.9-4.93c5.59,9.05,15.67,12.88,24.66,12.88,8.19,0,20.59-2.46,21-14.42.27-10.88-11-13-21.9-15-13.08-2.46-26-5.22-26.17-20.4-.13-14.87,13.14-21.31,26.71-21.16,9.86,0,18.4,3.07,25.08,10.12Z" transform="translate(-19 -136)"/><path id="path195" d="M716.53,643.28V689c5.48-10.88,14.85-15,24.26-15.18,18.81,0,28.21,13.65,28.21,33.42v43.4h-6.57V707.28c0-15.64-6.57-26.22-21.67-26.22-14.17,0-24,12.32-24,28.06v41.55h-6.65V643.28Z" transform="translate(-19 -136)"/></svg>